<mxfile host="drawio-plugin" modified="2022-03-30T07:05:40.905Z" agent="5.0 (Windows NT 6.2; Win64; x64) AppleWebKit/537.36 (KHTML, like Gecko) Chrome/89.0.4389.114 Safari/537.36" etag="Z6zwKz2qU1pHODQSnR_y" version="15.5.4" type="embed"><diagram id="23iRSUPoRavnBvh4doch" name="Page-1"><mxGraphModel dx="1141" dy="1796" grid="1" gridSize="10" guides="1" tooltips="1" connect="1" arrows="1" fold="1" page="1" pageScale="1" pageWidth="827" pageHeight="1169" math="0" shadow="0"><root><mxCell id="0"/><mxCell id="1" parent="0"/><mxCell id="12" style="edgeStyle=orthogonalEdgeStyle;rounded=0;orthogonalLoop=1;jettySize=auto;html=1;exitX=0.5;exitY=0.5;exitDx=0;exitDy=0;exitPerimeter=0;entryX=0;entryY=0.5;entryDx=0;entryDy=0;" edge="1" parent="1" source="2" target="9"><mxGeometry relative="1" as="geometry"/></mxCell><mxCell id="2" value="usager" style="shape=umlActor;verticalLabelPosition=bottom;verticalAlign=top;html=1;outlineConnect=0;" vertex="1" parent="1"><mxGeometry x="50" y="-950" width="30" height="60" as="geometry"/></mxCell><mxCell id="3" value="" style="swimlane;startSize=0;" vertex="1" parent="1"><mxGeometry x="119" y="-1110" width="601" height="990" as="geometry"/></mxCell><mxCell id="11" style="edgeStyle=orthogonalEdgeStyle;rounded=0;orthogonalLoop=1;jettySize=auto;html=1;entryX=0.5;entryY=0;entryDx=0;entryDy=0;" edge="1" parent="3" source="9" target="10"><mxGeometry relative="1" as="geometry"/></mxCell><mxCell id="9" value="Consulte les produits" style="ellipse;whiteSpace=wrap;html=1;" vertex="1" parent="3"><mxGeometry x="230" y="40" width="120" height="80" as="geometry"/></mxCell><mxCell id="14" style="edgeStyle=orthogonalEdgeStyle;rounded=0;orthogonalLoop=1;jettySize=auto;html=1;entryX=1;entryY=0.5;entryDx=0;entryDy=0;" edge="1" parent="3" source="10" target="9"><mxGeometry relative="1" as="geometry"><Array as="points"><mxPoint x="500" y="230"/><mxPoint x="500" y="80"/></Array></mxGeometry></mxCell><mxCell id="42" value="tâche répété" style="edgeLabel;html=1;align=center;verticalAlign=middle;resizable=0;points=[];" vertex="1" connectable="0" parent="14"><mxGeometry x="0.2545" y="-2" relative="1" as="geometry"><mxPoint as="offset"/></mxGeometry></mxCell><mxCell id="16" style="edgeStyle=orthogonalEdgeStyle;rounded=0;orthogonalLoop=1;jettySize=auto;html=1;entryX=0.5;entryY=0;entryDx=0;entryDy=0;" edge="1" parent="3" source="10" target="15"><mxGeometry relative="1" as="geometry"/></mxCell><mxCell id="10" value="Ajoute au panier" style="ellipse;whiteSpace=wrap;html=1;" vertex="1" parent="3"><mxGeometry x="350" y="190" width="120" height="80" as="geometry"/></mxCell><mxCell id="21" style="edgeStyle=orthogonalEdgeStyle;rounded=0;orthogonalLoop=1;jettySize=auto;html=1;entryX=0.5;entryY=0;entryDx=0;entryDy=0;" edge="1" parent="3" source="15" target="18"><mxGeometry relative="1" as="geometry"/></mxCell><mxCell id="15" value="valide le panier" style="ellipse;whiteSpace=wrap;html=1;" vertex="1" parent="3"><mxGeometry x="230" y="330" width="120" height="80" as="geometry"/></mxCell><mxCell id="23" style="edgeStyle=orthogonalEdgeStyle;rounded=0;orthogonalLoop=1;jettySize=auto;html=1;exitX=0.5;exitY=1;exitDx=0;exitDy=0;entryX=0.5;entryY=0;entryDx=0;entryDy=0;" edge="1" parent="3" source="18" target="22"><mxGeometry relative="1" as="geometry"><Array as="points"><mxPoint x="70" y="600"/><mxPoint x="70" y="600"/></Array></mxGeometry></mxCell><mxCell id="39" style="edgeStyle=orthogonalEdgeStyle;rounded=0;orthogonalLoop=1;jettySize=auto;html=1;entryX=0;entryY=0.5;entryDx=0;entryDy=0;" edge="1" parent="3" source="18" target="38"><mxGeometry relative="1" as="geometry"/></mxCell><mxCell id="18" value="inscription" style="ellipse;whiteSpace=wrap;html=1;" vertex="1" parent="3"><mxGeometry x="10" y="455" width="120" height="80" as="geometry"/></mxCell><mxCell id="26" style="edgeStyle=orthogonalEdgeStyle;rounded=0;orthogonalLoop=1;jettySize=auto;html=1;" edge="1" parent="3" source="22" target="24"><mxGeometry relative="1" as="geometry"/></mxCell><mxCell id="22" value="rempli le profil" style="ellipse;whiteSpace=wrap;html=1;" vertex="1" parent="3"><mxGeometry x="10" y="630" width="120" height="80" as="geometry"/></mxCell><mxCell id="28" style="edgeStyle=orthogonalEdgeStyle;rounded=0;orthogonalLoop=1;jettySize=auto;html=1;exitX=0.067;exitY=0.738;exitDx=0;exitDy=0;exitPerimeter=0;" edge="1" parent="3" source="24" target="27"><mxGeometry relative="1" as="geometry"><Array as="points"><mxPoint x="370" y="729"/><mxPoint x="370" y="780"/></Array></mxGeometry></mxCell><mxCell id="24" value="entre les informations de livraison" style="ellipse;whiteSpace=wrap;html=1;" vertex="1" parent="3"><mxGeometry x="401" y="670" width="120" height="80" as="geometry"/></mxCell><mxCell id="33" style="edgeStyle=orthogonalEdgeStyle;rounded=0;orthogonalLoop=1;jettySize=auto;html=1;" edge="1" parent="3" source="27" target="32"><mxGeometry relative="1" as="geometry"/></mxCell><mxCell id="27" value="procéde au paiement" style="ellipse;whiteSpace=wrap;html=1;" vertex="1" parent="3"><mxGeometry x="130" y="740" width="120" height="80" as="geometry"/></mxCell><mxCell id="30" value="Gestion produit" style="ellipse;whiteSpace=wrap;html=1;" vertex="1" parent="3"><mxGeometry x="380" y="820" width="120" height="80" as="geometry"/></mxCell><mxCell id="32" value="paiement validé" style="ellipse;whiteSpace=wrap;html=1;" vertex="1" parent="3"><mxGeometry x="130" y="870" width="120" height="80" as="geometry"/></mxCell><mxCell id="38" value="vérification email" style="ellipse;whiteSpace=wrap;html=1;" vertex="1" parent="3"><mxGeometry x="175" y="510" width="120" height="80" as="geometry"/></mxCell><mxCell id="19" value="connexion" style="ellipse;whiteSpace=wrap;html=1;" vertex="1" parent="3"><mxGeometry x="421" y="510" width="120" height="80" as="geometry"/></mxCell><mxCell id="25" style="edgeStyle=orthogonalEdgeStyle;rounded=0;orthogonalLoop=1;jettySize=auto;html=1;" edge="1" parent="3" source="19" target="24"><mxGeometry relative="1" as="geometry"/></mxCell><mxCell id="20" style="edgeStyle=orthogonalEdgeStyle;rounded=0;orthogonalLoop=1;jettySize=auto;html=1;" edge="1" parent="3" source="15" target="19"><mxGeometry relative="1" as="geometry"/></mxCell><mxCell id="31" style="edgeStyle=orthogonalEdgeStyle;rounded=0;orthogonalLoop=1;jettySize=auto;html=1;entryX=1;entryY=0.5;entryDx=0;entryDy=0;" edge="1" parent="3" source="19" target="30"><mxGeometry relative="1" as="geometry"><Array as="points"><mxPoint x="561" y="570"/><mxPoint x="561" y="850"/><mxPoint x="500" y="850"/></Array></mxGeometry></mxCell><mxCell id="43" value="pour employé" style="edgeLabel;html=1;align=center;verticalAlign=middle;resizable=0;points=[];" vertex="1" connectable="0" parent="31"><mxGeometry x="-0.2769" relative="1" as="geometry"><mxPoint as="offset"/></mxGeometry></mxCell><mxCell id="40" style="edgeStyle=orthogonalEdgeStyle;rounded=0;orthogonalLoop=1;jettySize=auto;html=1;" edge="1" parent="3" source="38" target="19"><mxGeometry relative="1" as="geometry"/></mxCell><mxCell id="5" value="employée" style="shape=umlActor;verticalLabelPosition=bottom;verticalAlign=top;html=1;outlineConnect=0;" vertex="1" parent="1"><mxGeometry x="760" y="-770" width="30" height="60" as="geometry"/></mxCell><mxCell id="8" style="edgeStyle=orthogonalEdgeStyle;rounded=0;orthogonalLoop=1;jettySize=auto;html=1;entryX=0.5;entryY=0;entryDx=0;entryDy=0;entryPerimeter=0;" edge="1" parent="1" source="6" target="5"><mxGeometry relative="1" as="geometry"/></mxCell><mxCell id="29" style="edgeStyle=orthogonalEdgeStyle;rounded=0;orthogonalLoop=1;jettySize=auto;html=1;entryX=1;entryY=0.5;entryDx=0;entryDy=0;" edge="1" parent="1" source="6" target="19"><mxGeometry relative="1" as="geometry"><Array as="points"><mxPoint x="690" y="-940"/><mxPoint x="690" y="-560"/></Array></mxGeometry></mxCell><mxCell id="6" value="Adminstrateur" style="shape=umlActor;verticalLabelPosition=bottom;verticalAlign=top;html=1;outlineConnect=0;" vertex="1" parent="1"><mxGeometry x="760" y="-970" width="30" height="60" as="geometry"/></mxCell><mxCell id="36" value="utilisateur déjà inscrit" style="text;html=1;align=center;verticalAlign=middle;resizable=0;points=[];autosize=1;strokeColor=none;fillColor=none;" vertex="1" parent="1"><mxGeometry x="485" y="-760" width="130" height="20" as="geometry"/></mxCell><mxCell id="37" value="utilisateur non inscrit" style="text;html=1;align=center;verticalAlign=middle;resizable=0;points=[];autosize=1;strokeColor=none;fillColor=none;" vertex="1" parent="1"><mxGeometry x="200" y="-763" width="120" height="20" as="geometry"/></mxCell><mxCell id="41" value="Aprés inscription" style="text;html=1;align=center;verticalAlign=middle;resizable=0;points=[];autosize=1;strokeColor=none;fillColor=none;" vertex="1" parent="1"><mxGeometry x="443" y="-580" width="100" height="20" as="geometry"/></mxCell></root></mxGraphModel></diagram></mxfile>